<svg version="1.1" id="Layer_1" xmlns="http://www.w3.org/2000/svg" xmlns:xlink="http://www.w3.org/1999/xlink" x="0px" y="0px"
	 width="100%" viewBox="0 0 1024 832" enable-background="new 0 0 1024 832" xml:space="preserve">
<path fill="#000000" opacity="1.000000" stroke="none" 
	d="
M826.751465,532.403198 
	C822.874268,533.117554 819.554199,532.618225 816.177551,531.442200 
	C810.320129,529.402161 808.812256,530.017273 807.039307,536.029175 
	C802.668457,550.851074 796.627563,565.037964 791.002075,579.381836 
	C784.702332,595.444946 775.972107,610.213928 766.942810,624.873474 
	C759.124268,637.567200 749.243469,648.800781 741.713074,661.667175 
	C740.734253,663.339539 740.333618,664.989563 740.340454,666.864990 
	C740.417542,687.905396 734.352295,707.394531 723.246277,724.892761 
	C709.640686,746.329285 691.097839,762.235413 667.111328,771.975586 
	C654.245361,777.200012 640.948303,778.501221 627.613342,779.896057 
	C618.927185,780.804626 610.221069,778.171326 601.650391,776.385254 
	C597.783752,775.579468 594.201416,775.622253 590.520325,776.996338 
	C575.145813,782.735168 559.758667,788.347717 544.010803,793.116333 
	C527.929993,797.985657 511.371216,799.995850 495.094849,803.584839 
	C489.468903,804.825317 483.540771,804.724487 477.744934,805.160400 
	C458.139221,806.634949 438.488464,807.003174 418.872162,806.052612 
	C401.298676,805.201111 383.915100,802.735291 366.595612,799.207031 
	C354.390137,796.720642 342.233521,794.126465 330.328674,790.612671 
	C319.718719,787.480957 309.270477,783.737793 298.933197,779.701843 
	C281.876526,773.042419 265.892700,764.176025 250.002350,755.315796 
	C237.147186,748.147827 225.022034,739.595886 213.021988,730.893616 
	C203.517746,724.001221 194.631851,716.415222 186.005417,708.659546 
	C180.894165,704.064209 174.077927,700.698303 171.300293,693.477905 
	C170.404694,691.149719 166.770401,691.275391 164.878021,689.159241 
	C157.383560,680.778564 149.956711,672.392456 142.896225,663.598938 
	C134.918167,653.662781 127.081123,643.649170 119.899292,633.160217 
	C114.294121,624.973938 109.554970,616.199707 104.262260,607.792969 
	C99.448265,600.146606 96.369499,591.628174 91.476646,583.949341 
	C87.271645,577.350098 85.179802,569.424377 81.974823,562.164062 
	C73.582054,543.151733 67.939018,523.205139 63.396160,503.062775 
	C59.999207,488.001190 56.676655,472.752838 55.794941,457.251953 
	C54.999126,443.261169 53.116779,429.321716 53.684963,415.251343 
	C54.267311,400.830170 53.983372,386.340149 55.304821,371.993225 
	C56.402409,360.076660 57.395298,347.921600 60.997829,336.472595 
	C63.723118,327.811493 64.692535,318.997162 66.188957,310.199554 
	C66.559494,308.021179 68.296867,306.615601 69.061127,304.568573 
	C74.127289,290.999176 77.548393,276.898865 83.403839,263.551056 
	C91.861877,244.270523 100.936935,225.407333 112.600021,207.828903 
	C117.565338,200.345261 122.012650,192.519669 126.864212,184.957794 
	C128.377563,182.599014 130.268402,180.413315 132.288559,178.461014 
	C140.244888,170.771881 146.864655,161.944672 153.561142,153.223770 
	C155.717850,150.415054 158.563660,148.425018 160.994080,146.225586 
	C168.871368,139.096954 174.232330,129.476486 183.009781,123.483582 
	C191.855011,117.444405 200.068390,110.623505 208.277496,103.864189 
	C217.422058,96.334648 228.436905,91.741776 237.402390,84.286972 
	C242.498749,80.049355 248.571838,77.402260 253.952606,74.315857 
	C260.407471,70.613358 266.243195,64.391006 274.812897,64.207886 
	C277.747406,64.145180 280.468231,61.559723 283.311584,60.248257 
	C296.095520,54.351826 308.987732,48.572712 322.512604,44.631802 
	C342.255005,38.879211 362.116699,33.519241 382.553558,30.628487 
	C395.965515,28.731388 409.465942,28.266495 422.958252,27.649942 
	C446.128540,26.591135 469.243774,27.784733 492.242126,30.478800 
	C504.385193,31.901260 516.338867,34.691162 528.249390,37.609161 
	C556.852356,44.616707 583.089355,57.504658 609.617188,69.714226 
	C618.495178,73.800385 626.966370,78.683220 635.110352,83.975288 
	C640.488037,87.469696 646.154053,88.180672 652.040588,88.606781 
	C659.081482,89.116447 666.273682,88.475548 673.176086,89.650452 
	C678.341431,90.529686 683.301880,93.196556 688.083618,95.603714 
	C694.677795,98.923256 701.789185,101.857300 707.259033,106.595711 
	C713.254089,111.789070 719.036377,117.424377 724.483765,123.360992 
	C733.272949,132.939575 738.125610,144.577530 743.391968,156.021667 
	C747.730591,165.449722 749.706909,175.669678 751.352966,185.847488 
	C752.338989,191.943909 754.432739,197.419846 758.049744,202.234756 
	C762.940430,208.745544 766.548889,216.056351 771.244141,222.660431 
	C776.414856,229.933060 779.663818,238.179596 783.760681,246.000549 
	C786.715698,251.641708 790.373718,257.246979 792.244568,263.048950 
	C794.504333,270.057190 800.090210,275.753571 800.115784,283.427734 
	C800.123779,285.826691 801.514038,287.669678 802.483948,289.230103 
	C806.759155,296.108551 806.801758,304.118561 809.259705,311.438904 
	C811.340759,317.636871 812.411560,324.013031 813.643799,330.407440 
	C814.406555,334.365936 818.747742,336.169861 822.870972,337.529907 
	C832.320007,340.646729 841.837952,343.625793 850.807983,348.079956 
	C860.380798,352.833405 870.767761,356.319336 879.524658,362.242920 
	C888.939270,368.611450 899.029785,374.159393 907.056580,382.756989 
	C914.169678,390.376007 919.377136,398.901215 920.308044,408.826874 
	C921.890381,425.699402 919.344116,442.185852 913.653259,458.463715 
	C907.662842,475.598572 898.169312,490.503693 886.201111,503.403198 
	C870.524414,520.299805 851.000305,531.242126 826.751465,532.403198 
M452.184021,445.562225 
	C461.848083,444.061890 471.502197,445.731567 481.159424,445.616302 
	C484.097168,445.581207 486.240112,446.270721 486.249207,449.519745 
	C486.268433,456.370880 488.348572,463.033386 488.295685,469.825653 
	C488.167969,486.210999 490.728485,502.404419 491.293152,518.748840 
	C492.049408,540.638000 493.628571,562.501404 495.049255,584.363220 
	C495.446045,590.468689 495.086761,596.629517 496.759918,602.674011 
	C499.804413,613.672852 507.956848,620.838257 515.813660,628.043335 
	C521.183960,632.968201 527.664368,636.612488 535.071533,637.911316 
	C556.499268,641.668518 575.525696,635.819641 592.749817,623.164490 
	C599.039978,618.542908 604.772583,613.279480 610.456543,607.901245 
	C615.033691,603.570374 617.646301,598.820801 617.875977,592.732056 
	C618.317383,581.027039 620.783386,569.541260 622.196106,557.972534 
	C623.211975,549.653564 623.968140,541.050110 626.250916,532.798279 
	C627.973206,526.572632 626.824280,519.849304 628.281311,513.724365 
	C629.731567,507.627686 630.235779,501.418579 631.467102,495.321411 
	C633.645264,484.536530 634.434204,473.464447 635.637146,462.494171 
	C635.921570,459.900330 636.871033,459.346527 639.435425,459.305084 
	C646.313843,459.193970 652.543579,461.869293 658.890259,463.668274 
	C676.006287,468.519836 692.866943,474.266724 709.953308,479.229950 
	C728.300232,484.559418 746.826904,489.267700 765.202942,494.500549 
	C778.628357,498.323639 791.836670,502.939453 805.331787,506.477081 
	C814.763428,508.949432 823.957581,512.210144 834.418091,509.990295 
	C852.035583,506.251770 864.838928,496.009460 875.971375,482.870270 
	C881.205872,476.692169 885.077881,469.694122 888.760925,462.417999 
	C895.973389,448.169281 900.132080,433.415375 898.532654,417.510651 
	C897.788086,410.106079 897.524231,402.319183 890.780029,396.657623 
	C881.730469,389.060944 872.368652,382.270721 861.543762,377.251068 
	C841.756104,368.075256 821.549133,359.812622 800.695251,353.775787 
	C772.040588,345.480774 743.712524,335.890411 714.389893,329.949677 
	C706.765259,328.404907 699.271729,326.208893 691.726135,324.280273 
	C689.836182,323.797211 687.055969,323.436951 688.230896,320.691223 
	C690.215088,316.054382 691.791260,310.953735 694.400696,306.926697 
	C700.539856,297.452301 705.050781,287.278351 709.815247,277.172791 
	C716.584717,262.814392 722.040710,247.902863 727.306396,232.977875 
	C731.533203,220.997391 731.922913,208.198273 730.412720,195.606979 
	C729.116699,184.801483 727.041626,174.181335 722.881165,163.866882 
	C719.798401,156.224228 716.063660,149.052704 711.193176,142.707932 
	C700.156067,128.329727 686.583679,117.179207 668.318848,112.924583 
	C655.727417,109.991539 643.301514,109.720474 631.658325,115.996696 
	C623.172913,120.570801 615.881653,126.627602 609.652832,134.307053 
	C596.421631,150.619659 585.830322,168.535751 576.505798,187.176651 
	C568.908142,202.365433 562.707947,218.235229 557.068726,234.280731 
	C551.645813,249.710693 544.241577,264.485657 540.990967,280.603027 
	C540.311890,283.970398 539.532043,287.414490 538.192139,290.307373 
	C536.162354,294.689850 536.468811,299.995331 533.234985,303.653900 
	C530.499390,306.748657 526.584778,304.205017 523.219421,304.513214 
	C523.053467,304.528412 522.886414,304.539581 522.722351,304.567169 
	C506.898712,307.229675 490.878021,307.415833 474.917572,308.150269 
	C448.124786,309.383240 421.400024,312.365845 394.519012,311.445770 
	C394.021393,311.428741 393.505432,311.424469 393.024078,311.531464 
	C379.995300,314.427338 366.726379,313.923676 353.521637,314.460083 
	C348.772186,314.653046 343.954407,315.134766 340.133820,318.812317 
	C338.145081,320.726593 335.729156,322.237793 333.376312,323.725677 
	C325.497894,328.707916 320.663849,336.736023 314.735138,343.458862 
	C307.954559,351.147705 304.878387,361.285645 303.621826,371.885895 
	C302.537140,381.036224 303.144897,389.881287 306.409149,398.254303 
	C313.026001,415.226959 324.761780,428.634644 337.409912,441.459442 
	C343.273560,447.405029 349.350433,449.357941 357.626862,448.833435 
	C374.079315,447.790802 390.579620,447.279205 407.098114,447.192719 
	C421.857971,447.115448 436.611969,445.654663 452.184021,445.562225 
M200.034103,558.484131 
	C204.058304,569.938354 213.568970,578.007751 218.666962,588.846863 
	C224.193817,600.597778 233.717728,609.507141 241.810730,619.352783 
	C256.712708,637.482117 274.787262,652.309448 294.205017,665.313599 
	C323.331177,684.819519 354.931458,698.609131 389.653961,704.864014 
	C403.007477,707.269531 416.261719,709.983643 429.951202,708.899841 
	C431.710754,708.760559 433.756226,708.201965 435.319305,709.398010 
	C437.741364,711.251404 440.465576,710.665833 443.029755,710.516724 
	C451.255280,710.038391 459.471436,709.362183 467.679626,708.631958 
	C479.841034,707.550171 491.740662,704.800964 503.728699,702.652588 
	C506.584625,702.140869 509.035309,700.388000 512.299255,700.295227 
	C515.557495,700.202698 517.276855,697.523560 516.416931,693.747070 
	C513.985413,683.068420 511.887451,672.422913 512.782654,661.254822 
	C513.126160,656.969238 514.682800,651.338501 509.232208,648.145447 
	C500.832733,643.225037 494.548248,636.010315 487.939240,629.032349 
	C477.446991,617.954529 474.411774,604.750061 474.866241,590.098633 
	C475.059204,583.878296 474.984467,577.373352 473.805115,571.476929 
	C471.842712,561.665588 472.361755,551.790222 471.358398,542.001648 
	C470.022827,528.972534 470.024536,515.721802 469.276093,502.608093 
	C468.698334,492.484467 468.019196,482.275452 466.866150,472.138641 
	C466.375793,467.827850 464.907471,466.763275 461.076508,466.909698 
	C446.186218,467.478882 431.288269,467.852722 416.400543,468.476135 
	C413.611237,468.592926 410.873566,469.464386 408.000824,469.255798 
	C398.558472,468.570190 389.121429,469.642700 379.692566,469.824463 
	C368.664917,470.037079 357.672852,471.047913 346.588837,470.472168 
	C341.901215,470.228729 338.066315,469.198029 334.258209,466.435791 
	C328.061401,461.941040 322.529724,456.656250 317.180878,451.346619 
	C306.603638,440.846924 297.604797,429.143646 291.228333,415.335052 
	C285.553894,403.046844 281.702057,390.550232 281.393768,377.072998 
	C280.910492,355.946625 289.656677,338.560089 303.378723,323.087433 
	C310.020477,315.598358 317.637787,309.336365 325.384766,303.123108 
	C334.175720,296.072510 343.375336,290.510284 355.352936,292.645813 
	C356.641418,292.875549 358.034149,292.793945 359.341431,292.602875 
	C372.325592,290.705170 385.469818,291.060333 398.504608,289.740295 
	C409.572388,288.619476 420.713226,288.170044 431.861786,288.572449 
	C433.171539,288.619720 434.570770,288.545685 435.797913,288.136353 
	C442.888306,285.771240 450.257874,286.757629 457.487244,286.349518 
	C467.879822,285.762909 478.339111,286.205536 488.707947,285.405426 
	C495.792419,284.858734 502.950439,284.210297 509.984772,284.038422 
	C516.151428,283.887726 518.577026,281.571716 520.075073,276.358246 
	C522.765564,266.995117 525.271240,257.548004 528.587646,248.401978 
	C535.887329,228.270782 542.848083,207.967728 552.294006,188.710968 
	C556.165344,180.818710 555.979797,179.405624 547.398804,175.644119 
	C530.081238,168.052856 512.437622,161.386322 493.742828,157.748276 
	C478.123260,154.708710 462.447998,152.058273 446.561523,151.488007 
	C435.346832,151.085434 424.121124,152.373932 412.902344,153.071823 
	C399.489410,153.906189 386.357605,156.010422 373.500916,159.455032 
	C359.600403,163.179291 345.834686,167.374832 332.636932,173.463745 
	C320.248352,179.179321 308.028290,185.162155 296.595673,192.523407 
	C290.403442,196.510468 284.493683,201.146912 278.597839,205.596237 
	C272.121765,210.483429 265.960632,215.704422 259.951569,221.046844 
	C245.978317,233.469864 234.144150,247.781326 222.964600,262.817657 
	C209.769760,280.564545 198.971161,299.567993 190.680817,319.880157 
	C182.374222,340.232117 176.439240,361.321259 173.359360,383.288849 
	C171.339615,397.695007 170.637772,412.040344 170.208405,426.503052 
	C169.970245,434.524597 171.741074,442.435791 171.149872,450.373169 
	C170.566498,458.205780 172.235046,465.813049 173.290787,473.348022 
	C174.808487,484.180084 178.115723,494.848358 180.398926,505.533508 
	C183.335892,519.278198 189.359573,531.680237 193.485886,544.841553 
	C194.905685,549.370178 197.591034,553.502014 200.034103,558.484131 
M653.474609,489.704620 
	C652.130249,498.578339 650.798462,507.453949 649.438293,516.325256 
	C647.741760,527.391174 646.157898,538.477234 644.242798,549.505493 
	C643.511475,553.716919 646.235291,556.136414 648.983459,556.314636 
	C656.811707,556.822510 663.331299,560.991272 670.606873,562.929138 
	C674.202820,563.886841 676.617493,563.699341 678.440857,560.169495 
	C683.542908,550.292664 688.077820,540.173279 691.590027,529.625549 
	C694.065735,522.190491 696.094849,514.603149 698.685303,507.210632 
	C701.514832,499.135681 700.529236,497.136841 691.958618,495.361267 
	C690.823914,495.126160 689.693970,494.856262 688.578308,494.543457 
	C678.562378,491.734894 668.808289,488.041962 658.545227,486.033936 
	C655.478577,485.433929 654.200195,486.222473 653.474609,489.704620 
z"/>
<path fill="#000000" opacity="1.000000" stroke="none" 
	d="
M834.036499,754.347961 
	C835.588440,759.001465 833.617065,763.298035 833.697266,767.634155 
	C833.748657,770.412659 831.571045,773.961426 830.059448,776.988159 
	C821.565491,793.995178 807.692261,804.686890 788.995422,806.336670 
	C776.661072,807.425171 764.248474,804.962463 753.334778,796.790405 
	C743.927124,789.745972 737.460144,781.134888 734.753540,770.186584 
	C731.875427,758.544922 732.107483,746.225891 738.068054,735.709473 
	C741.852783,729.032043 745.854492,722.058899 753.044067,717.143433 
	C759.867371,712.478455 766.234863,707.884338 774.563843,707.104004 
	C785.462585,706.082947 796.298950,705.267334 806.198303,711.896606 
	C812.010681,715.789062 817.543457,719.847168 822.037231,725.246460 
	C828.420776,732.916260 832.986328,741.343933 833.420349,751.582886 
	C833.454834,752.396362 833.801758,753.196655 834.036499,754.347961 
z"/>
<path fill="#000000" opacity="1.000000" stroke="none" 
	d="
M896.626892,752.147034 
	C888.309937,753.870422 880.217651,754.968018 872.803284,751.030701 
	C856.020935,742.118530 851.349548,724.619751 860.496948,708.881836 
	C866.630005,698.330200 876.429382,693.670349 888.684448,693.621155 
	C900.829468,693.572388 915.907043,705.484802 917.894653,717.194519 
	C920.260315,731.131287 912.432861,745.367554 899.305359,751.008179 
	C898.540405,751.336914 897.782715,751.682617 896.626892,752.147034 
z"/>
<path fill="#000000" opacity="1.000000" stroke="none" 
	d="
M970.482910,768.167603 
	C963.031250,764.893738 958.514832,759.333679 958.104614,751.712891 
	C957.663635,743.520691 961.755493,736.620911 969.020142,733.036255 
	C974.743347,730.212280 981.636475,730.012939 987.201416,733.953308 
	C992.718201,737.859619 997.688782,742.245605 996.784607,750.630432 
	C996.334229,754.806763 995.970337,760.180054 993.712830,762.032593 
	C988.379211,766.409729 982.512817,771.894287 974.191772,769.020935 
	C973.105835,768.645813 971.929260,768.533386 970.482910,768.167603 
z"/>
</svg>